<mxfile host="app.diagrams.net" agent="Mozilla/5.0 (Windows NT 10.0; Win64; x64) AppleWebKit/537.36 (KHTML, like Gecko) Chrome/133.0.0.0 Safari/537.36 Edg/133.0.0.0" version="26.0.16">
  <diagram name="Page-1" id="TBvgw9sA0K52j4TJTqJS">
    <mxGraphModel dx="733" dy="323" grid="1" gridSize="10" guides="1" tooltips="1" connect="1" arrows="1" fold="1" page="1" pageScale="1" pageWidth="827" pageHeight="1169" math="0" shadow="0">
      <root>
        <mxCell id="0" />
        <mxCell id="1" parent="0" />
        <mxCell id="99JSJiRyKYS2L9uTOMKk-2" value="&lt;font style=&quot;color: rgb(255, 255, 255);&quot;&gt;Utrydde Fattigdom&lt;/font&gt;&lt;div&gt;&lt;font style=&quot;color: rgb(255, 255, 255);&quot;&gt;&lt;br&gt;&lt;/font&gt;&lt;/div&gt;&lt;div&gt;&lt;br&gt;&lt;/div&gt;" style="whiteSpace=wrap;html=1;aspect=fixed;fillColor=light-dark(#FF0707,var(--ge-dark-color, #121212));" vertex="1" parent="1">
          <mxGeometry x="60" y="290" width="80" height="80" as="geometry" />
        </mxCell>
        <mxCell id="99JSJiRyKYS2L9uTOMKk-3" value="&lt;font style=&quot;color: rgb(255, 255, 255);&quot;&gt;&amp;nbsp; &amp;nbsp; &amp;nbsp;Fred, rettferdighet og velfungerende institusjoner&amp;nbsp;&lt;/font&gt;" style="whiteSpace=wrap;html=1;aspect=fixed;fillColor=light-dark(#007FFF,var(--ge-dark-color, #121212));" vertex="1" parent="1">
          <mxGeometry x="334" y="470" width="80" height="80" as="geometry" />
        </mxCell>
        <mxCell id="99JSJiRyKYS2L9uTOMKk-4" value="&lt;font style=&quot;color: rgb(255, 255, 255);&quot;&gt;&amp;nbsp; &amp;nbsp; Livet på land&lt;/font&gt;&lt;div&gt;&lt;font style=&quot;color: rgb(255, 255, 255);&quot;&gt;&lt;br&gt;&lt;/font&gt;&lt;/div&gt;&lt;div&gt;&lt;font style=&quot;color: rgb(255, 255, 255);&quot;&gt;&lt;br&gt;&lt;/font&gt;&lt;/div&gt;&lt;div&gt;&lt;br&gt;&lt;/div&gt;" style="whiteSpace=wrap;html=1;aspect=fixed;fillColor=light-dark(#66FF66,#000000);" vertex="1" parent="1">
          <mxGeometry x="240" y="470" width="80" height="80" as="geometry" />
        </mxCell>
        <mxCell id="99JSJiRyKYS2L9uTOMKk-5" value="&lt;font style=&quot;color: rgb(255, 255, 255);&quot;&gt;&amp;nbsp;Industriell innovasjon og infrastruktur&amp;nbsp;&lt;/font&gt;&lt;div&gt;&lt;br&gt;&lt;/div&gt;" style="whiteSpace=wrap;html=1;aspect=fixed;fillColor=light-dark(#FF8000,var(--ge-dark-color, #121212));" vertex="1" parent="1">
          <mxGeometry x="240" y="380" width="80" height="80" as="geometry" />
        </mxCell>
        <mxCell id="99JSJiRyKYS2L9uTOMKk-6" value="&lt;font style=&quot;color: rgb(255, 255, 255);&quot;&gt;&amp;nbsp; &amp;nbsp; &amp;nbsp; &amp;nbsp;Livet i havet&lt;/font&gt;&lt;div&gt;&lt;font color=&quot;#ffffff&quot;&gt;&lt;br&gt;&lt;/font&gt;&lt;/div&gt;&lt;div&gt;&lt;font color=&quot;#ffffff&quot;&gt;&lt;br&gt;&lt;/font&gt;&lt;div&gt;&lt;br&gt;&lt;/div&gt;&lt;/div&gt;" style="whiteSpace=wrap;html=1;aspect=fixed;fillColor=light-dark(#33FFFF,var(--ge-dark-color, #121212));" vertex="1" parent="1">
          <mxGeometry x="150" y="470" width="80" height="80" as="geometry" />
        </mxCell>
        <mxCell id="99JSJiRyKYS2L9uTOMKk-7" value="&lt;font style=&quot;color: rgb(255, 255, 255);&quot;&gt;&amp;nbsp; Anstendig arbeid og økonomisk vekst&lt;/font&gt;" style="whiteSpace=wrap;html=1;aspect=fixed;fillColor=light-dark(#CC0066,var(--ge-dark-color, #121212));" vertex="1" parent="1">
          <mxGeometry x="150" y="380" width="80" height="80" as="geometry" />
        </mxCell>
        <mxCell id="99JSJiRyKYS2L9uTOMKk-8" value="&lt;font style=&quot;color: rgb(255, 255, 255);&quot;&gt;&amp;nbsp; &amp;nbsp; &amp;nbsp; Stoppe klima- endringene&lt;/font&gt;&lt;div&gt;&lt;font style=&quot;color: rgb(255, 255, 255);&quot;&gt;&lt;br&gt;&lt;/font&gt;&lt;/div&gt;&lt;div&gt;&lt;br&gt;&lt;/div&gt;" style="whiteSpace=wrap;html=1;aspect=fixed;fillColor=light-dark(#336600,var(--ge-dark-color, #121212));" vertex="1" parent="1">
          <mxGeometry x="60" y="470" width="80" height="80" as="geometry" />
        </mxCell>
        <mxCell id="99JSJiRyKYS2L9uTOMKk-9" value="&lt;div&gt;&lt;span style=&quot;background-color: transparent; color: light-dark(rgb(255, 255, 255), rgb(18, 18, 18));&quot;&gt;&amp;nbsp; &amp;nbsp; Ren energi til alle&lt;/span&gt;&lt;/div&gt;&lt;div&gt;&lt;font style=&quot;color: rgb(255, 255, 255);&quot;&gt;&lt;br&gt;&lt;/font&gt;&lt;/div&gt;&lt;div&gt;&lt;br&gt;&lt;/div&gt;" style="whiteSpace=wrap;html=1;aspect=fixed;fillColor=light-dark(#D3D300,var(--ge-dark-color, #121212));" vertex="1" parent="1">
          <mxGeometry x="60" y="380" width="80" height="80" as="geometry" />
        </mxCell>
        <mxCell id="99JSJiRyKYS2L9uTOMKk-10" value="&lt;font style=&quot;color: rgb(255, 255, 255);&quot;&gt;&amp;nbsp; &amp;nbsp; &amp;nbsp;God helse&amp;nbsp;&lt;/font&gt;&lt;div&gt;&lt;font style=&quot;color: rgb(255, 255, 255);&quot;&gt;og livskvalitet&lt;/font&gt;&lt;div&gt;&lt;br&gt;&lt;/div&gt;&lt;/div&gt;" style="whiteSpace=wrap;html=1;aspect=fixed;fillColor=light-dark(#66CC00,var(--ge-dark-color, #121212));" vertex="1" parent="1">
          <mxGeometry x="240" y="290" width="80" height="80" as="geometry" />
        </mxCell>
        <mxCell id="99JSJiRyKYS2L9uTOMKk-11" value="&lt;font style=&quot;color: rgb(255, 255, 255);&quot;&gt;Utrydde&amp;nbsp;&lt;/font&gt;&lt;div&gt;&lt;font style=&quot;color: rgb(255, 255, 255);&quot;&gt;sult&lt;/font&gt;&lt;div&gt;&lt;font style=&quot;color: rgb(255, 255, 255);&quot;&gt;&lt;br&gt;&lt;/font&gt;&lt;/div&gt;&lt;div&gt;&lt;br&gt;&lt;/div&gt;&lt;/div&gt;" style="whiteSpace=wrap;html=1;aspect=fixed;fillColor=light-dark(#FFB366,var(--ge-dark-color, #121212));" vertex="1" parent="1">
          <mxGeometry x="150" y="290" width="80" height="80" as="geometry" />
        </mxCell>
        <mxCell id="99JSJiRyKYS2L9uTOMKk-13" value="&lt;font style=&quot;color: rgb(255, 255, 255);&quot;&gt;Samarbeid for å nå målene&lt;/font&gt;" style="whiteSpace=wrap;html=1;aspect=fixed;fillColor=light-dark(#003366,var(--ge-dark-color, #121212));" vertex="1" parent="1">
          <mxGeometry x="427.65" y="470" width="80" height="80" as="geometry" />
        </mxCell>
        <mxCell id="99JSJiRyKYS2L9uTOMKk-14" value="&lt;font style=&quot;color: rgb(255, 255, 255);&quot;&gt;&amp;nbsp; &amp;nbsp; &amp;nbsp; Mindre ulikhet&lt;/font&gt;&lt;div&gt;&lt;font style=&quot;color: rgb(255, 255, 255);&quot;&gt;&lt;br&gt;&lt;/font&gt;&lt;/div&gt;&lt;div&gt;&lt;br&gt;&lt;/div&gt;" style="whiteSpace=wrap;html=1;aspect=fixed;fillColor=light-dark(#FF33FF,var(--ge-dark-color, #121212));" vertex="1" parent="1">
          <mxGeometry x="334" y="380" width="80" height="80" as="geometry" />
        </mxCell>
        <mxCell id="99JSJiRyKYS2L9uTOMKk-15" value="&lt;span&gt;&lt;font style=&quot;color: rgb(255, 255, 255);&quot;&gt;&amp;nbsp; &amp;nbsp; Ansvarlig forbruk og produksjon&lt;/font&gt;&lt;/span&gt;&lt;div&gt;&lt;br&gt;&lt;/div&gt;" style="whiteSpace=wrap;html=1;aspect=fixed;fillColor=light-dark(#994C00,var(--ge-dark-color, #121212));" vertex="1" parent="1">
          <mxGeometry x="520" y="380" width="80" height="80" as="geometry" />
        </mxCell>
        <mxCell id="99JSJiRyKYS2L9uTOMKk-16" value="&lt;font style=&quot;color: rgb(255, 255, 255);&quot;&gt;&amp;nbsp; &amp;nbsp; Bærekraftige byer og lokalsamfunn&lt;/font&gt;" style="whiteSpace=wrap;html=1;aspect=fixed;fillColor=light-dark(#FF9933,var(--ge-dark-color, #121212));" vertex="1" parent="1">
          <mxGeometry x="427.65" y="380" width="80" height="80" as="geometry" />
        </mxCell>
        <mxCell id="99JSJiRyKYS2L9uTOMKk-17" value="&lt;font style=&quot;color: rgb(255, 255, 255);&quot;&gt;&amp;nbsp; &amp;nbsp; &amp;nbsp;Likestilling mellom kjønnene&lt;/font&gt;&lt;div&gt;&lt;br&gt;&lt;/div&gt;" style="whiteSpace=wrap;html=1;aspect=fixed;fillColor=light-dark(#E1673B,#000000);" vertex="1" parent="1">
          <mxGeometry x="427.65" y="290" width="80" height="80" as="geometry" />
        </mxCell>
        <mxCell id="99JSJiRyKYS2L9uTOMKk-18" value="&lt;font style=&quot;color: rgb(255, 255, 255);&quot;&gt;God utdanning&lt;/font&gt;&lt;div&gt;&lt;font style=&quot;color: rgb(255, 255, 255);&quot;&gt;&lt;br&gt;&lt;/font&gt;&lt;/div&gt;&lt;div&gt;&lt;br&gt;&lt;/div&gt;" style="whiteSpace=wrap;html=1;aspect=fixed;fillColor=light-dark(#8F0707,#000000);" vertex="1" parent="1">
          <mxGeometry x="334" y="290" width="80" height="80" as="geometry" />
        </mxCell>
        <mxCell id="99JSJiRyKYS2L9uTOMKk-19" value="&lt;font style=&quot;color: rgb(255, 255, 255);&quot;&gt;&amp;nbsp; &amp;nbsp; &amp;nbsp;Rent vann og gode sanitærforhold&lt;/font&gt;&lt;div&gt;&lt;br&gt;&lt;/div&gt;" style="whiteSpace=wrap;html=1;aspect=fixed;fillColor=light-dark(#4DACA8,var(--ge-dark-color, #121212));" vertex="1" parent="1">
          <mxGeometry x="520" y="290" width="80" height="80" as="geometry" />
        </mxCell>
        <mxCell id="99JSJiRyKYS2L9uTOMKk-20" value="&lt;font style=&quot;font-size: 18px; color: rgb(255, 255, 255);&quot;&gt;&lt;b&gt;1&lt;/b&gt;&lt;/font&gt;" style="text;html=1;align=center;verticalAlign=middle;whiteSpace=wrap;rounded=0;" vertex="1" parent="1">
          <mxGeometry x="40" y="290" width="60" height="30" as="geometry" />
        </mxCell>
        <mxCell id="99JSJiRyKYS2L9uTOMKk-21" value="&lt;font style=&quot;font-size: 18px; color: rgb(255, 255, 255);&quot;&gt;&lt;b&gt;2&lt;/b&gt;&lt;/font&gt;" style="text;html=1;align=center;verticalAlign=middle;whiteSpace=wrap;rounded=0;" vertex="1" parent="1">
          <mxGeometry x="130" y="290" width="60" height="30" as="geometry" />
        </mxCell>
        <mxCell id="99JSJiRyKYS2L9uTOMKk-22" value="&lt;font style=&quot;font-size: 18px; color: rgb(255, 255, 255);&quot;&gt;&lt;b&gt;3&lt;/b&gt;&lt;/font&gt;" style="text;html=1;align=center;verticalAlign=middle;whiteSpace=wrap;rounded=0;" vertex="1" parent="1">
          <mxGeometry x="220" y="290" width="60" height="30" as="geometry" />
        </mxCell>
        <mxCell id="99JSJiRyKYS2L9uTOMKk-23" value="&lt;font style=&quot;font-size: 18px; color: rgb(255, 255, 255);&quot;&gt;&lt;b&gt;4&lt;/b&gt;&lt;/font&gt;" style="text;html=1;align=center;verticalAlign=middle;whiteSpace=wrap;rounded=0;" vertex="1" parent="1">
          <mxGeometry x="320" y="290" width="60" height="30" as="geometry" />
        </mxCell>
        <mxCell id="99JSJiRyKYS2L9uTOMKk-24" value="&lt;font style=&quot;font-size: 18px; color: rgb(255, 255, 255);&quot;&gt;&lt;b&gt;5&lt;/b&gt;&lt;/font&gt;" style="text;html=1;align=center;verticalAlign=middle;whiteSpace=wrap;rounded=0;" vertex="1" parent="1">
          <mxGeometry x="410" y="290" width="60" height="30" as="geometry" />
        </mxCell>
        <mxCell id="99JSJiRyKYS2L9uTOMKk-25" value="&lt;font style=&quot;font-size: 18px; color: rgb(255, 255, 255);&quot;&gt;&lt;b&gt;6&lt;/b&gt;&lt;/font&gt;" style="text;html=1;align=center;verticalAlign=middle;whiteSpace=wrap;rounded=0;" vertex="1" parent="1">
          <mxGeometry x="500" y="290" width="60" height="30" as="geometry" />
        </mxCell>
        <mxCell id="99JSJiRyKYS2L9uTOMKk-26" value="&lt;font style=&quot;font-size: 18px; color: rgb(255, 255, 255);&quot;&gt;&lt;b&gt;7&lt;/b&gt;&lt;/font&gt;" style="text;html=1;align=center;verticalAlign=middle;whiteSpace=wrap;rounded=0;" vertex="1" parent="1">
          <mxGeometry x="40" y="380" width="60" height="30" as="geometry" />
        </mxCell>
        <mxCell id="99JSJiRyKYS2L9uTOMKk-27" value="&lt;font style=&quot;font-size: 18px; color: rgb(255, 255, 255);&quot;&gt;&lt;b&gt;8&lt;/b&gt;&lt;/font&gt;" style="text;html=1;align=center;verticalAlign=middle;whiteSpace=wrap;rounded=0;" vertex="1" parent="1">
          <mxGeometry x="130" y="380" width="60" height="30" as="geometry" />
        </mxCell>
        <mxCell id="99JSJiRyKYS2L9uTOMKk-28" value="&lt;font style=&quot;font-size: 18px; color: rgb(255, 255, 255);&quot;&gt;&lt;b&gt;9&lt;/b&gt;&lt;/font&gt;" style="text;html=1;align=center;verticalAlign=middle;whiteSpace=wrap;rounded=0;" vertex="1" parent="1">
          <mxGeometry x="220" y="380" width="60" height="30" as="geometry" />
        </mxCell>
        <mxCell id="99JSJiRyKYS2L9uTOMKk-29" value="&lt;font style=&quot;font-size: 18px; color: rgb(255, 255, 255);&quot;&gt;&lt;b&gt;10&lt;/b&gt;&lt;/font&gt;" style="text;html=1;align=center;verticalAlign=middle;whiteSpace=wrap;rounded=0;" vertex="1" parent="1">
          <mxGeometry x="320" y="380" width="60" height="30" as="geometry" />
        </mxCell>
        <mxCell id="99JSJiRyKYS2L9uTOMKk-30" value="&lt;font style=&quot;font-size: 18px; color: rgb(255, 255, 255);&quot;&gt;&lt;b&gt;11&lt;/b&gt;&lt;/font&gt;" style="text;html=1;align=center;verticalAlign=middle;whiteSpace=wrap;rounded=0;" vertex="1" parent="1">
          <mxGeometry x="410" y="380" width="60" height="30" as="geometry" />
        </mxCell>
        <mxCell id="99JSJiRyKYS2L9uTOMKk-31" value="&lt;font style=&quot;font-size: 18px; color: rgb(255, 255, 255);&quot;&gt;&lt;b&gt;12&lt;/b&gt;&lt;/font&gt;" style="text;html=1;align=center;verticalAlign=middle;whiteSpace=wrap;rounded=0;" vertex="1" parent="1">
          <mxGeometry x="500" y="380" width="60" height="30" as="geometry" />
        </mxCell>
        <mxCell id="99JSJiRyKYS2L9uTOMKk-32" value="&lt;font style=&quot;font-size: 18px; color: rgb(255, 255, 255);&quot;&gt;&lt;b&gt;13&lt;/b&gt;&lt;/font&gt;" style="text;html=1;align=center;verticalAlign=middle;whiteSpace=wrap;rounded=0;" vertex="1" parent="1">
          <mxGeometry x="40" y="470" width="60" height="30" as="geometry" />
        </mxCell>
        <mxCell id="99JSJiRyKYS2L9uTOMKk-33" value="&lt;font style=&quot;font-size: 18px; color: rgb(255, 255, 255);&quot;&gt;&lt;b&gt;14&lt;/b&gt;&lt;/font&gt;" style="text;html=1;align=center;verticalAlign=middle;whiteSpace=wrap;rounded=0;" vertex="1" parent="1">
          <mxGeometry x="130" y="470" width="60" height="30" as="geometry" />
        </mxCell>
        <mxCell id="99JSJiRyKYS2L9uTOMKk-34" value="&lt;font style=&quot;font-size: 18px; color: rgb(255, 255, 255);&quot;&gt;&lt;b&gt;15&lt;/b&gt;&lt;/font&gt;" style="text;html=1;align=center;verticalAlign=middle;whiteSpace=wrap;rounded=0;" vertex="1" parent="1">
          <mxGeometry x="219.99999999999997" y="470" width="60" height="30" as="geometry" />
        </mxCell>
        <mxCell id="99JSJiRyKYS2L9uTOMKk-35" value="&lt;font style=&quot;font-size: 18px; color: rgb(255, 255, 255);&quot;&gt;&lt;b&gt;16&lt;/b&gt;&lt;/font&gt;" style="text;html=1;align=center;verticalAlign=middle;whiteSpace=wrap;rounded=0;" vertex="1" parent="1">
          <mxGeometry x="320" y="470" width="60" height="30" as="geometry" />
        </mxCell>
        <mxCell id="99JSJiRyKYS2L9uTOMKk-36" value="&lt;font style=&quot;font-size: 18px; color: rgb(255, 255, 255);&quot;&gt;&lt;b&gt;17&lt;/b&gt;&lt;/font&gt;" style="text;html=1;align=center;verticalAlign=middle;whiteSpace=wrap;rounded=0;" vertex="1" parent="1">
          <mxGeometry x="405" y="470" width="70" height="30" as="geometry" />
        </mxCell>
        <mxCell id="99JSJiRyKYS2L9uTOMKk-37" value="" style="verticalLabelPosition=bottom;sketch=0;html=1;fillColor=#282828;strokeColor=none;verticalAlign=top;pointerEvents=1;align=center;shape=mxgraph.cisco_safe.people_places_things_icons.icon1;" vertex="1" parent="1">
          <mxGeometry x="83.38" y="340" width="33.25" height="30" as="geometry" />
        </mxCell>
        <mxCell id="99JSJiRyKYS2L9uTOMKk-38" value="" style="shape=mxgraph.signs.food.restaurant_1;html=1;pointerEvents=1;fillColor=#000000;strokeColor=none;verticalLabelPosition=bottom;verticalAlign=top;align=center;" vertex="1" parent="1">
          <mxGeometry x="172" y="340" width="28" height="30" as="geometry" />
        </mxCell>
        <mxCell id="99JSJiRyKYS2L9uTOMKk-39" value="" style="sketch=0;pointerEvents=1;shadow=0;dashed=0;html=1;strokeColor=none;labelPosition=center;verticalLabelPosition=bottom;verticalAlign=top;align=center;fillColor=#505050;shape=mxgraph.mscae.intune.device_health" vertex="1" parent="1">
          <mxGeometry x="257.5" y="345" width="45" height="20" as="geometry" />
        </mxCell>
        <mxCell id="99JSJiRyKYS2L9uTOMKk-40" value="" style="sketch=0;pointerEvents=1;shadow=0;dashed=0;html=1;strokeColor=none;fillColor=#505050;labelPosition=center;verticalLabelPosition=bottom;verticalAlign=top;outlineConnect=0;align=center;shape=mxgraph.office.concepts.address_book;" vertex="1" parent="1">
          <mxGeometry x="352.25" y="335" width="43.5" height="30" as="geometry" />
        </mxCell>
        <mxCell id="99JSJiRyKYS2L9uTOMKk-41" value="" style="shape=mxgraph.signs.people.male;html=1;pointerEvents=1;fillColor=#000000;strokeColor=none;verticalLabelPosition=bottom;verticalAlign=top;align=center;" vertex="1" parent="1">
          <mxGeometry x="480" y="345" width="20" height="25" as="geometry" />
        </mxCell>
        <mxCell id="99JSJiRyKYS2L9uTOMKk-42" value="" style="shape=mxgraph.signs.people.female;html=1;pointerEvents=1;fillColor=#000000;strokeColor=none;verticalLabelPosition=bottom;verticalAlign=top;align=center;" vertex="1" parent="1">
          <mxGeometry x="450" y="345" width="20" height="25" as="geometry" />
        </mxCell>
        <mxCell id="99JSJiRyKYS2L9uTOMKk-45" value="" style="shape=image;html=1;verticalAlign=top;verticalLabelPosition=bottom;labelBackgroundColor=#ffffff;imageAspect=0;aspect=fixed;image=https://cdn0.iconfinder.com/data/icons/evericons-24px-vol-1/24/drop-128.png" vertex="1" parent="1">
          <mxGeometry x="532" y="347.5" width="20" height="20" as="geometry" />
        </mxCell>
        <mxCell id="99JSJiRyKYS2L9uTOMKk-47" value="" style="shape=mxgraph.signs.nature.sun_2;html=1;pointerEvents=1;fillColor=#000000;strokeColor=none;verticalLabelPosition=bottom;verticalAlign=top;align=center;" vertex="1" parent="1">
          <mxGeometry x="80.01" y="420" width="39.99" height="30" as="geometry" />
        </mxCell>
        <mxCell id="99JSJiRyKYS2L9uTOMKk-49" value="" style="shape=image;html=1;verticalAlign=top;verticalLabelPosition=bottom;labelBackgroundColor=#ffffff;imageAspect=0;aspect=fixed;image=https://cdn0.iconfinder.com/data/icons/geosm-e-commerce/48/equals-128.png" vertex="1" parent="1">
          <mxGeometry x="344.5" y="405.5" width="59" height="59" as="geometry" />
        </mxCell>
        <mxCell id="99JSJiRyKYS2L9uTOMKk-50" value="" style="verticalLabelPosition=bottom;html=1;verticalAlign=top;strokeWidth=2;shape=mxgraph.lean_mapping.physical_pull;pointerEvents=1;" vertex="1" parent="1">
          <mxGeometry x="544" y="440" width="26" height="10" as="geometry" />
        </mxCell>
        <mxCell id="99JSJiRyKYS2L9uTOMKk-51" value="" style="shape=image;html=1;verticalAlign=top;verticalLabelPosition=bottom;labelBackgroundColor=#ffffff;imageAspect=0;aspect=fixed;image=https://cdn4.iconfinder.com/data/icons/ibrandify-basic-essentials-icon-set/512/pen_stroke_sketch_doodle_lineart_212-128.png" vertex="1" parent="1">
          <mxGeometry x="86.63" y="520" width="30" height="30" as="geometry" />
        </mxCell>
        <mxCell id="99JSJiRyKYS2L9uTOMKk-52" value="" style="shape=mxgraph.signs.animals.fish_hatchery;html=1;pointerEvents=1;fillColor=#000000;strokeColor=none;verticalLabelPosition=bottom;verticalAlign=top;align=center;" vertex="1" parent="1">
          <mxGeometry x="166" y="500" width="48" height="47.5" as="geometry" />
        </mxCell>
        <mxCell id="99JSJiRyKYS2L9uTOMKk-53" value="" style="shape=image;html=1;verticalAlign=top;verticalLabelPosition=bottom;labelBackgroundColor=#ffffff;imageAspect=0;aspect=fixed;image=https://cdn0.iconfinder.com/data/icons/business-and-education-1/512/21_tree_forest_christmas_x_mas-128.png" vertex="1" parent="1">
          <mxGeometry x="257.5" y="500" width="50" height="50" as="geometry" />
        </mxCell>
      </root>
    </mxGraphModel>
  </diagram>
</mxfile>
